<?xml version="1.0" encoding="UTF-8" standalone="no"?>
<!-- Created with Inkscape (http://www.inkscape.org/) -->

<svg
   xmlns:dc="http://purl.org/dc/elements/1.1/"
   xmlns:cc="http://creativecommons.org/ns#"
   xmlns:rdf="http://www.w3.org/1999/02/22-rdf-syntax-ns#"
   xmlns:svg="http://www.w3.org/2000/svg"
   xmlns="http://www.w3.org/2000/svg"
   xmlns:xlink="http://www.w3.org/1999/xlink"
   xmlns:sodipodi="http://sodipodi.sourceforge.net/DTD/sodipodi-0.dtd"
   xmlns:inkscape="http://www.inkscape.org/namespaces/inkscape"
   width="34.237907mm"
   height="9.57516mm"
   viewBox="0 0 34.237907 9.57516"
   version="1.1"
   id="svg8"
   inkscape:version="0.92.4 (5da689c313, 2019-01-14)"
   sodipodi:docname="lizhao.svg">
  <defs
     id="defs2">
    <linearGradient
       inkscape:collect="always"
       id="linearGradient201">
      <stop
         style="stop-color:#ff0000;stop-opacity:1;"
         offset="0"
         id="stop197" />
      <stop
         style="stop-color:#ff0000;stop-opacity:0;"
         offset="1"
         id="stop199" />
    </linearGradient>
    <linearGradient
       inkscape:collect="always"
       id="linearGradient193">
      <stop
         style="stop-color:#ff0000;stop-opacity:1;"
         offset="0"
         id="stop189" />
      <stop
         style="stop-color:#ff0000;stop-opacity:0;"
         offset="1"
         id="stop191" />
    </linearGradient>
    <linearGradient
       inkscape:collect="always"
       id="linearGradient185">
      <stop
         style="stop-color:#ff0000;stop-opacity:1;"
         offset="0"
         id="stop181" />
      <stop
         style="stop-color:#ff0000;stop-opacity:0;"
         offset="1"
         id="stop183" />
    </linearGradient>
    <linearGradient
       inkscape:collect="always"
       id="linearGradient105">
      <stop
         style="stop-color:#aca793;stop-opacity:1;"
         offset="0"
         id="stop101" />
      <stop
         style="stop-color:#aca793;stop-opacity:0;"
         offset="1"
         id="stop103" />
    </linearGradient>
    <linearGradient
       inkscape:collect="always"
       id="linearGradient53">
      <stop
         style="stop-color:#000000;stop-opacity:1;"
         offset="0"
         id="stop49" />
      <stop
         style="stop-color:#aca793;stop-opacity:1"
         offset="1"
         id="stop51" />
    </linearGradient>
    <linearGradient
       inkscape:collect="always"
       id="linearGradient45">
      <stop
         style="stop-color:#aca793;stop-opacity:1;"
         offset="0"
         id="stop41" />
      <stop
         style="stop-color:#aca793;stop-opacity:0;"
         offset="1"
         id="stop43" />
    </linearGradient>
    <linearGradient
       inkscape:collect="always"
       xlink:href="#linearGradient45"
       id="linearGradient47"
       x1="30.805323"
       y1="126.62227"
       x2="27.136686"
       y2="115.91824"
       gradientUnits="userSpaceOnUse" />
    <linearGradient
       inkscape:collect="always"
       xlink:href="#linearGradient53"
       id="linearGradient55"
       x1="45.051407"
       y1="163.16949"
       x2="50.67548"
       y2="139.45703"
       gradientUnits="userSpaceOnUse" />
    <linearGradient
       inkscape:collect="always"
       xlink:href="#linearGradient105"
       id="linearGradient107"
       x1="51.222893"
       y1="126.50157"
       x2="51.040424"
       y2="114.82341"
       gradientUnits="userSpaceOnUse" />
    <linearGradient
       inkscape:collect="always"
       xlink:href="#linearGradient185"
       id="linearGradient187"
       x1="33.518227"
       y1="126.16292"
       x2="39.018192"
       y2="115.67082"
       gradientUnits="userSpaceOnUse" />
    <linearGradient
       inkscape:collect="always"
       xlink:href="#linearGradient193"
       id="linearGradient195"
       x1="32.40361"
       y1="117.24038"
       x2="41.292236"
       y2="118.20371"
       gradientUnits="userSpaceOnUse" />
    <linearGradient
       inkscape:collect="always"
       xlink:href="#linearGradient201"
       id="linearGradient203"
       x1="33.518227"
       y1="126.16292"
       x2="63.234295"
       y2="125.98508"
       gradientUnits="userSpaceOnUse" />
  </defs>
  <sodipodi:namedview
     id="base"
     pagecolor="#ffffff"
     bordercolor="#666666"
     borderopacity="1.0"
     inkscape:pageopacity="0.0"
     inkscape:pageshadow="2"
     inkscape:zoom="2.36"
     inkscape:cx="59.653738"
     inkscape:cy="79.930187"
     inkscape:document-units="mm"
     inkscape:current-layer="layer1"
     showgrid="false"
     inkscape:window-width="1210"
     inkscape:window-height="960"
     inkscape:window-x="70"
     inkscape:window-y="27"
     inkscape:window-maximized="1" />
  <metadata
     id="metadata5">
    <rdf:RDF>
      <cc:Work
         rdf:about="">
        <dc:format>image/svg+xml</dc:format>
        <dc:type
           rdf:resource="http://purl.org/dc/dcmitype/StillImage" />
        <dc:title />
      </cc:Work>
    </rdf:RDF>
  </metadata>
  <g
     inkscape:label="Layer 1"
     inkscape:groupmode="layer"
     id="layer1"
     transform="translate(-25.676916,-118.20371)">
    <g
       aria-label="LI"
       style="font-style:normal;font-weight:normal;font-size:10.58333302px;line-height:1.25;font-family:sans-serif;letter-spacing:0px;word-spacing:0px;fill:url(#linearGradient47);fill-opacity:1;stroke:none;stroke-width:0.26458332"
       id="text3929">
      <path
         d="m 25.676916,118.76685 h 2.517675 v 5.02915 q 0,0.58912 0.186036,0.78755 0.192236,0.19224 0.750341,0.19224 h 0.130225 v 2.45566 h -0.669727 q -1.37666,0 -2.145605,-0.79995 -0.768945,-0.80615 -0.768945,-2.23242 z"
         style="font-style:normal;font-variant:normal;font-weight:normal;font-stretch:normal;font-size:12.69999981px;font-family:'Bauhaus 93';-inkscape-font-specification:'Bauhaus 93, ';fill:url(#linearGradient47);fill-opacity:1;stroke-width:0.26458332"
         id="path213" />
      <path
         d="m 32.63463,118.76685 v 8.4646 h -2.517675 v -8.4646 z"
         style="font-style:normal;font-variant:normal;font-weight:normal;font-stretch:normal;font-size:12.69999981px;font-family:'Bauhaus 93';-inkscape-font-specification:'Bauhaus 93, ';fill:url(#linearGradient47);fill-opacity:1;stroke-width:0.26458332"
         id="path215" />
    </g>
    <path
       style="fill:url(#linearGradient195);stroke-width:10;stroke-miterlimit:4;stroke-dasharray:none;fill-opacity:1"
       id="path849"
       d="m 31.691566,120.94067 c 0.514199,-0.32678 1.01609,-0.74776 1.610372,-0.92383 0.05817,-0.019 0.117538,-0.0343 0.176996,-0.0488 0.09302,-0.023 0.185739,-0.0472 0.279557,-0.0668 0.121349,-0.0281 0.24402,-0.0499 0.365869,-0.0756 0.132321,-0.0273 0.265077,-0.0523 0.397659,-0.0783 0.139629,-0.0275 0.280085,-0.0504 0.42046,-0.0736 0.157628,-0.0263 0.315103,-0.0533 0.473065,-0.0776 0.158551,-0.0281 0.317579,-0.0534 0.47673,-0.0778 0.156797,-0.022 0.313063,-0.0473 0.469578,-0.0711 0.156977,-0.0227 0.313675,-0.0471 0.46986,-0.0747 0.167742,-0.0273 0.334883,-0.0581 0.501444,-0.0918 0.166649,-0.0329 0.332283,-0.0706 0.498377,-0.10612 0.162116,-0.0341 0.323678,-0.0708 0.485225,-0.10752 0.154612,-0.0345 0.308292,-0.073 0.46235,-0.10988 0.147565,-0.037 0.294403,-0.0768 0.441646,-0.11502 0.143439,-0.0353 0.286387,-0.0726 0.428149,-0.1142 0.137247,-0.0391 0.274381,-0.0787 0.410819,-0.12051 0.1331,-0.0427 0.265803,-0.0866 0.399435,-0.12761 0.129503,-0.039 0.257991,-0.0813 0.38656,-0.12331 0.11688,-0.0375 0.232176,-0.0796 0.34819,-0.11966 0.0657,-0.0236 0.03292,-0.0126 0.09833,-0.0332 0,0 -1.397653,1.08651 -1.397653,1.08651 v 0 c -0.06391,0.0229 -0.03143,0.0115 -0.09745,0.034 -0.116295,0.0399 -0.232276,0.0807 -0.349806,0.11699 -0.128868,0.0416 -0.258338,0.0814 -0.387576,0.12181 -0.133384,0.0427 -0.266424,0.0865 -0.400917,0.12565 -0.137385,0.0399 -0.274596,0.0803 -0.412588,0.11802 -0.143101,0.0381 -0.286613,0.0746 -0.429938,0.11182 -0.147506,0.0389 -0.295304,0.0767 -0.443656,0.11216 -0.154259,0.0373 -0.308829,0.0734 -0.463753,0.10785 -0.161857,0.0364 -0.324018,0.0714 -0.486253,0.10601 -0.166488,0.036 -0.333057,0.0717 -0.500466,0.10327 -0.167749,0.0312 -0.335799,0.0607 -0.50416,0.0885 -0.157005,0.0253 -0.31432,0.0486 -0.471524,0.0727 -0.156333,0.0244 -0.312977,0.0466 -0.469243,0.0714 -0.158929,0.0254 -0.317549,0.0527 -0.476492,0.078 -0.157497,0.0258 -0.314755,0.053 -0.472195,0.0791 -0.139597,0.024 -0.278959,0.0494 -0.41781,0.0775 -0.132376,0.026 -0.26482,0.0517 -0.396836,0.0795 -0.121592,0.0242 -0.242641,0.051 -0.363244,0.0797 -0.09159,0.0237 -0.183486,0.0467 -0.273644,0.0754 -0.05529,0.0195 -0.11036,0.0396 -0.160136,0.0712 -0.525846,0.37407 2.005264,-1.17949 1.426847,-0.81974 0,0 -1.652178,0.63954 -1.652178,0.63954 z"
       inkscape:connector-curvature="0" />
    <path
       style="fill:url(#linearGradient187);stroke-width:10;stroke-miterlimit:4;stroke-dasharray:none;fill-opacity:1"
       id="path863"
       d="m 37.867164,120.82583 c -0.05384,0.0293 -0.108282,0.054 -0.164247,0.0794 -0.09541,0.0465 -0.193365,0.0874 -0.288291,0.13479 -0.09748,0.0517 -0.195873,0.10093 -0.288612,0.16093 -1.440737,0.85055 4.899808,-2.82232 3.371751,-1.94279 -0.09815,0.0504 -0.19088,0.10954 -0.283704,0.16879 -0.08777,0.0649 -0.178135,0.12621 -0.269511,0.18595 -0.09757,0.0641 -0.185936,0.14094 -0.278389,0.21205 -0.09516,0.0767 -0.189618,0.15417 -0.28169,0.2345 -0.09401,0.0821 -0.186565,0.16579 -0.278002,0.25075 -0.09241,0.0848 -0.184662,0.16965 -0.272895,0.25884 -0.09501,0.0954 -0.184998,0.19553 -0.278334,0.29252 -0.09678,0.10573 -0.197999,0.20735 -0.293544,0.31419 -0.100082,0.10465 -0.193054,0.21568 -0.289882,0.32327 -0.09473,0.10929 -0.191375,0.21685 -0.287866,0.32458 -0.09282,0.10863 -0.1908,0.21268 -0.286197,0.31901 -0.09651,0.10102 -0.191843,0.20309 -0.286612,0.30574 -0.09364,0.10301 -0.187832,0.2055 -0.282398,0.30766 -0.09233,0.1019 -0.181851,0.20643 -0.270187,0.31183 -0.08962,0.10266 -0.178187,0.20616 -0.269813,0.30705 -0.08462,0.0989 -0.170024,0.19709 -0.252853,0.29753 -0.08359,0.0965 -0.169388,0.1911 -0.256693,0.28421 -0.0822,0.0956 -0.168492,0.1873 -0.25466,0.27922 -0.08545,0.0851 -0.168718,0.17235 -0.253757,0.25789 -0.08368,0.0863 -0.171409,0.16848 -0.255798,0.25405 -0.08551,0.0837 -0.17015,0.16836 -0.258527,0.24908 -0.08363,0.0848 -0.174226,0.16228 -0.259521,0.24528 -0.08592,0.0799 -0.168097,0.16361 -0.255652,0.24181 -0.07985,0.0791 -0.167059,0.15034 -0.247388,0.22887 -0.07955,0.0751 -0.156514,0.15286 -0.235896,0.22825 -0.07809,0.0759 -0.160876,0.14677 -0.23977,0.22184 0,0 -3.955457,1.61595 -3.955457,1.61595 v 0 c 0.082,-0.0709 0.158766,-0.14756 0.241539,-0.21753 0.08052,-0.0729 0.162782,-0.14406 0.238658,-0.22179 0.0824,-0.0774 0.158742,-0.16123 0.245391,-0.23421 0.08387,-0.0817 0.174745,-0.1557 0.256966,-0.2391 0.08742,-0.0804 0.169819,-0.16639 0.259999,-0.24397 0.0846,-0.084 0.174417,-0.16241 0.2601,-0.24532 0.08759,-0.0814 0.170207,-0.16788 0.257892,-0.24914 0.08566,-0.0844 0.172165,-0.16784 0.255123,-0.25488 0.08924,-0.0854 0.177092,-0.17237 0.261935,-0.26221 0.08385,-0.0956 0.170708,-0.18848 0.258111,-0.28083 0.08973,-0.0929 0.171248,-0.19297 0.256312,-0.29009 0.08625,-0.10642 0.179657,-0.20646 0.268564,-0.31061 0.09275,-0.10196 0.181769,-0.20736 0.269419,-0.31369 0.09021,-0.10744 0.18434,-0.21138 0.279485,-0.31446 0.09422,-0.10449 0.188652,-0.20869 0.284178,-0.31199 0.09931,-0.10039 0.193303,-0.20583 0.290827,-0.30794 0.09568,-0.10819 0.192556,-0.21521 0.288761,-0.32291 0.09526,-0.11017 0.19413,-0.21715 0.287475,-0.329 0.09766,-0.10586 0.190097,-0.2165 0.290751,-0.31968 0.09089,-0.10005 0.185636,-0.19651 0.276196,-0.29687 0.08695,-0.094 0.17132,-0.19069 0.264585,-0.27859 0.09085,-0.0875 0.181359,-0.17516 0.273808,-0.2609 0.09101,-0.0841 0.180922,-0.16937 0.275264,-0.24981 0.08842,-0.079 0.18337,-0.15041 0.270482,-0.23089 0.08369,-0.0718 0.172964,-0.13642 0.265038,-0.19699 0.08845,-0.0694 0.178629,-0.13683 0.271476,-0.20032 1.290126,-0.79798 2.590708,-1.58637 3.943782,-2.27279 0.103315,-0.0453 0.20541,-0.0935 0.311432,-0.13224 0.103504,-0.038 0.206181,-0.0799 0.314496,-0.10278 0.07068,-0.0145 0.14164,-0.027 0.214008,-0.0176 0,0 -3.427658,2.55607 -3.427658,2.55607 z"
       inkscape:connector-curvature="0" />
    <path
       style="fill:url(#linearGradient203);stroke-width:10;stroke-miterlimit:4;stroke-dasharray:none;fill-opacity:1"
       id="path869"
       d="m 31.979884,126.56684 c 0.03737,-0.0168 0.07613,-0.0305 0.114758,-0.0443 0.06477,-0.0258 0.130909,-0.0478 0.196083,-0.0725 0.08234,-0.0306 0.165546,-0.0585 0.24938,-0.0847 0.08826,-0.0317 0.178127,-0.0584 0.268337,-0.0839 0.09638,-0.0302 0.193803,-0.0567 0.292022,-0.0801 0.112085,-0.0246 0.224042,-0.0499 0.336475,-0.0729 0.128754,-0.0272 0.258151,-0.051 0.387734,-0.0739 0.135528,-0.0238 0.271435,-0.0454 0.407459,-0.0661 0.135743,-0.0197 0.271614,-0.0383 0.407213,-0.0589 0.136969,-0.0212 0.274381,-0.0394 0.411956,-0.0562 0.147585,-0.0196 0.295179,-0.0392 0.443088,-0.0563 0.161659,-0.0186 0.323262,-0.0376 0.485012,-0.0555 0.169755,-0.0175 0.339322,-0.0367 0.508984,-0.055 0.174213,-0.0187 0.348652,-0.0353 0.523192,-0.0506 0.18606,-0.0182 0.372255,-0.035 0.558497,-0.0512 0.185584,-0.0157 0.371229,-0.0305 0.556727,-0.0472 0.184914,-0.0169 0.369968,-0.0321 0.555082,-0.0466 0.186752,-0.0146 0.373628,-0.0276 0.560543,-0.04 0.198702,-0.013 0.397545,-0.0236 0.596401,-0.0339 0.203396,-0.0106 0.406843,-0.0201 0.610315,-0.0291 0.203795,-0.009 0.407748,-0.0144 0.611709,-0.0172 0.201033,-0.003 0.40209,-10e-4 0.603129,3.2e-4 0.199525,0.002 0.399002,0.007 0.598482,0.0112 0.197948,0.004 0.395903,0.008 0.593859,0.0121 0.194761,0.006 0.389504,0.0123 0.58426,0.0183 0.210772,0.006 0.421423,0.0155 0.632046,0.0253 0.245973,0.0118 0.491944,0.024 0.737804,0.0379 0.278513,0.0148 0.556891,0.0319 0.835221,0.0498 0.299285,0.0205 0.598915,0.0355 0.898232,0.0555 0.325071,0.0224 0.650251,0.0432 0.975382,0.0647 0.329473,0.0217 0.658988,0.0428 0.988549,0.0631 0.312657,0.0191 0.625169,0.0406 0.937778,0.0605 0.306251,0.0184 0.612423,0.038 0.918591,0.0577 0.299037,0.0195 0.598173,0.0374 0.89735,0.0545 0.29736,0.0189 0.594764,0.0371 0.89222,0.0544 0.292814,0.0158 0.585446,0.0347 0.878136,0.0526 0.280797,0.0171 0.561655,0.033 0.842397,0.051 0.271462,0.0177 0.543001,0.0342 0.814575,0.0501 0.261411,0.0169 0.522785,0.0343 0.78422,0.0509 0.251039,0.0154 0.502118,0.0302 0.753088,0.0467 0.241689,0.0162 0.483431,0.0315 0.725202,0.0463 0.233214,0.013 0.466294,0.0281 0.699365,0.0434 0.226793,0.015 0.45366,0.0289 0.680556,0.0422 0.216646,0.0127 0.43334,0.0246 0.65005,0.0362 0.206772,0.0123 0.413385,0.0273 0.62027,0.0377 0.104384,0.005 0.208799,0.009 0.313211,0.0136 0,0 -0.643294,0.46326 -0.643294,0.46326 v 0 c -0.104593,-0.004 -0.209188,-0.009 -0.313733,-0.0143 -0.206822,-0.0115 -0.413459,-0.0261 -0.620273,-0.0378 -0.216768,-0.0117 -0.43352,-0.0237 -0.650221,-0.0366 -0.226978,-0.0136 -0.453927,-0.0276 -0.680808,-0.0427 -0.232992,-0.0153 -0.466042,-0.0296 -0.69914,-0.0432 -0.241803,-0.015 -0.483571,-0.0305 -0.725302,-0.0466 -0.250936,-0.0163 -0.501984,-0.0307 -0.752949,-0.0466 -0.261321,-0.0167 -0.522573,-0.0344 -0.78392,-0.0506 -0.271632,-0.016 -0.543222,-0.0328 -0.814756,-0.0504 -0.280688,-0.0178 -0.561498,-0.0336 -0.842213,-0.0509 -0.292619,-0.018 -0.585211,-0.0364 -0.877945,-0.0525 -0.297435,-0.0175 -0.594806,-0.036 -0.892187,-0.0544 -0.299265,-0.0173 -0.598486,-0.0355 -0.897616,-0.055 -0.306146,-0.0198 -0.612333,-0.0388 -0.918537,-0.0577 -0.312542,-0.0201 -0.625002,-0.0414 -0.937612,-0.0604 -0.329585,-0.0205 -0.659127,-0.0417 -0.988631,-0.0634 -0.325175,-0.0215 -0.650391,-0.0423 -0.975519,-0.0645 -0.299394,-0.019 -0.598967,-0.0351 -0.898284,-0.0553 -0.278282,-0.0177 -0.556639,-0.0341 -0.835085,-0.0491 -0.245796,-0.0134 -0.491639,-0.026 -0.737542,-0.0372 -0.210449,-0.01 -0.420945,-0.0183 -0.631533,-0.0242 -0.194576,-0.006 -0.389135,-0.0128 -0.583748,-0.0175 -0.197975,-0.004 -0.395947,-0.008 -0.593914,-0.0122 -0.199255,-0.004 -0.398513,-0.009 -0.597821,-0.0103 -0.200662,-0.001 -0.401342,-0.003 -0.601989,10e-4 -0.203524,0.004 -0.40704,0.01 -0.610389,0.019 -0.203351,0.009 -0.406676,0.0189 -0.609954,0.0296 -0.198673,0.0105 -0.397321,0.0215 -0.595825,0.0349 -0.186728,0.0126 -0.373417,0.0259 -0.559982,0.0408 -0.184959,0.0148 -0.369837,0.0305 -0.554626,0.0472 -0.185534,0.0164 -0.37123,0.0307 -0.556765,0.0471 -0.186219,0.0165 -0.372354,0.0338 -0.558474,0.0514 -0.174257,0.0158 -0.348411,0.0328 -0.522351,0.0519 -0.169624,0.0185 -0.339234,0.0371 -0.508898,0.0552 -0.161644,0.0181 -0.32316,0.0373 -0.484733,0.056 -0.147725,0.0181 -0.295242,0.0377 -0.442854,0.0567 -0.13718,0.0175 -0.274149,0.0367 -0.410825,0.0578 -0.135606,0.0202 -0.271543,0.038 -0.407014,0.0591 -0.135651,0.0212 -0.271184,0.0432 -0.406307,0.0676 -0.129158,0.0235 -0.258012,0.0485 -0.386417,0.0759 -0.111799,0.0241 -0.223714,0.0479 -0.334752,0.0754 -0.09736,0.0254 -0.193802,0.0539 -0.290229,0.0826 -0.08957,0.0268 -0.178249,0.0563 -0.26699,0.0857 -0.08304,0.0275 -0.165397,0.057 -0.247379,0.0875 -0.06559,0.0237 -0.130826,0.0482 -0.195993,0.073 -0.03813,0.0149 -0.07587,0.0307 -0.113886,0.0458 0,0 0.624275,-0.49091 0.624275,-0.49091 z"
       inkscape:connector-curvature="0" />
    <path
       style="fill:#ac9393;stroke-width:0.12694326"
       d="m 23.463733,32.982886 c 0,-0.07218 2.400275,-0.829605 2.629026,-0.829605 0.102486,0 0.163726,0.166184 0.163726,0.444301 v 0.444301 h -1.396376 c -0.768007,0 -1.396376,-0.02655 -1.396376,-0.059 z"
       id="path3813"
       inkscape:connector-curvature="0"
       transform="matrix(0.26458333,0,0,0.26458333,25.545524,118.20371)" />
    <g
       aria-label="HAO"
       style="font-style:normal;font-weight:normal;font-size:10.58333302px;line-height:1.25;font-family:sans-serif;letter-spacing:0px;word-spacing:0px;fill:url(#linearGradient107);fill-opacity:1;stroke:none;stroke-width:0.26458332"
       id="text99">
      <path
         d="M 42.934705,121.23964 V 123.1 h -0.583944 v 2.67167 h -2.098063 v -7.05384 h 2.098063 v 2.52181 z m 2.45463,-2.52181 v 7.05384 h -2.098063 v -7.05384 z"
         style="font-style:normal;font-variant:normal;font-weight:normal;font-stretch:normal;font-family:'Bauhaus 93';-inkscape-font-specification:'Bauhaus 93, ';fill:url(#linearGradient107);fill-opacity:1;stroke-width:0.26458332"
         id="path218" />
      <path
         d="m 49.363253,122.23183 v 1.86035 h -0.604614 v 1.67949 h -2.098063 v -4.48552 q 0,-1.30224 0.707967,-2.02055 0.713134,-0.72347 1.999878,-0.72347 1.240234,0 1.834513,0.6563 0.594279,0.65112 0.594279,2.01538 v 4.55786 H 49.69915 v -4.41834 q 0,-0.41341 -0.09819,-0.57361 -0.09819,-0.16019 -0.351399,-0.16019 -0.490926,0 -0.490926,0.7338 v 0.8785 z"
         style="font-style:normal;font-variant:normal;font-weight:normal;font-stretch:normal;font-family:'Bauhaus 93';-inkscape-font-specification:'Bauhaus 93, ';fill:url(#linearGradient107);fill-opacity:1;stroke-width:0.26458332"
         id="path220" />
      <path
         d="m 56.411918,118.54213 q 1.498617,0 2.568319,1.09038 1.07487,1.09037 1.07487,2.60966 0,1.54512 -1.080038,2.62516 -1.080037,1.08004 -2.625163,1.08004 -1.53479,0 -2.619995,-1.08521 -1.085205,-1.0852 -1.085205,-2.61999 0,-1.5503 1.090373,-2.62517 1.09554,-1.07487 2.676839,-1.07487 z m -0.06201,2.0774 q -0.645955,0 -1.100707,0.47542 -0.454753,0.47542 -0.454753,1.14722 0,0.67179 0.454753,1.14721 0.45992,0.47543 1.100707,0.47543 0.651124,0 1.100708,-0.47026 0.454753,-0.47542 0.454753,-1.15238 0,-0.67696 -0.454753,-1.14722 -0.449584,-0.47542 -1.100708,-0.47542 z"
         style="font-style:normal;font-variant:normal;font-weight:normal;font-stretch:normal;font-family:'Bauhaus 93';-inkscape-font-specification:'Bauhaus 93, ';fill:url(#linearGradient107);fill-opacity:1;stroke-width:0.26458332"
         id="path222" />
    </g>
  </g>
</svg>
